<?xml version="1.0" standalone="no"?>
<!DOCTYPE svg PUBLIC "-//W3C//DTD SVG 20010904//EN"
 "http://www.w3.org/TR/2001/REC-SVG-20010904/DTD/svg10.dtd">
<svg version="1.0" xmlns="http://www.w3.org/2000/svg"
 width="430.000000pt" height="400.000000pt" viewBox="0 0 430.000000 400.000000"
 preserveAspectRatio="xMidYMid meet">

<g transform="translate(0.000000,400.000000) scale(0.100000,-0.100000)"
fill="#000000" stroke="none">
<path d="M1833 3655 c-475 -86 -850 -478 -919 -960 -7 -48 -6 -49 12 -33 48
42 152 26 176 -27 15 -34 1 -75 -32 -92 -36 -18 -111 -16 -139 4 l-24 16 6
-109 c13 -250 119 -489 304 -684 225 -238 495 -353 823 -352 155 1 270 21 407
72 l62 24 228 -42 c125 -24 241 -43 256 -42 69 0 142 64 154 132 3 22 -12 120
-42 265 l-48 230 32 82 c41 106 71 253 71 348 l0 74 -22 -15 c-29 -20 -100
-20 -138 -1 -58 30 -49 104 17 131 38 16 96 12 121 -8 21 -18 24 -3 12 63 -83
469 -455 843 -919 924 -101 18 -300 18 -398 0z m411 -225 c179 -47 311 -122
437 -249 179 -181 259 -375 259 -633 0 -148 -15 -232 -65 -355 -21 -51 -35
-104 -35 -129 0 -23 16 -118 35 -210 20 -92 34 -173 31 -179 -3 -9 -53 -3
-183 22 -98 19 -196 35 -218 36 -25 1 -78 -13 -138 -36 -381 -146 -781 -38
-1044 281 -70 84 -115 167 -152 277 -172 515 140 1062 674 1180 97 22 307 19
399 -5z"/>
<path d="M1425 2940 c-92 -14 -184 -81 -226 -163 -23 -43 -18 -73 14 -83 16
-5 26 0 41 21 52 70 113 122 159 134 95 27 201 -20 247 -110 27 -52 45 -64 75
-51 15 7 25 20 25 32 0 35 -36 94 -84 138 -74 68 -160 96 -251 82z"/>
<path d="M2567 2939 c-90 -14 -179 -76 -218 -151 -22 -43 -24 -69 -7 -86 24
-24 48 -12 79 37 95 155 283 157 384 5 44 -66 60 -74 88 -46 20 21 20 21 1 64
-56 126 -191 199 -327 177z"/>
<path d="M1960 2720 c-56 -14 -123 -46 -148 -70 -20 -19 -22 -28 -16 -64 41
-247 172 -349 329 -256 59 36 126 109 149 164 7 17 15 53 18 80 5 45 3 52 -22
76 -60 56 -222 93 -310 70z m160 -153 c42 -14 66 -28 68 -39 7 -39 -124 -148
-179 -148 -32 0 -83 60 -102 120 -29 90 -29 90 66 90 58 -1 101 -7 147 -23z"/>
<path d="M622 931 c-49 -9 -88 -34 -119 -81 -22 -31 -23 -43 -23 -204 0 -152
2 -175 20 -203 34 -56 69 -67 222 -71 l137 -4 14 29 c19 38 21 103 2 103 -8 0
-18 7 -23 17 -7 12 -28 17 -88 20 -44 2 -85 6 -91 8 -18 6 -18 231 -1 241 6 4
14 2 16 -4 2 -8 31 -12 81 -12 68 0 80 3 98 23 25 28 30 117 7 117 -8 0 -17 7
-20 15 -5 12 -25 15 -98 14 -50 -1 -110 -5 -134 -8z"/>
<path d="M1030 931 c0 -6 -15 -11 -32 -13 l-33 -3 0 -270 0 -270 69 -3 c97 -4
109 8 106 113 -2 44 -2 86 -1 93 1 14 31 17 31 2 0 -5 20 -10 45 -10 l44 0 3
-97 3 -98 69 -3 c110 -5 106 -15 106 275 l0 244 -27 24 c-29 26 -81 33 -100
14 -6 -6 -19 -12 -29 -13 -16 -2 -19 -13 -22 -71 -2 -48 1 -71 10 -77 18 -11
-9 -29 -37 -23 -11 2 -37 4 -57 4 l-38 1 0 80 c0 62 -3 80 -14 80 -8 0 -16 7
-20 15 -6 16 -76 22 -76 6z"/>
<path d="M1800 929 c0 -8 -23 -10 -74 -7 -47 3 -79 1 -89 -7 -9 -6 -37 -67
-63 -136 -44 -116 -47 -132 -52 -241 -2 -64 -2 -128 2 -142 6 -25 10 -26 75
-26 62 0 70 2 85 25 12 18 15 37 10 70 -5 37 -3 46 12 52 10 4 19 2 22 -5 2
-7 23 -12 47 -12 l44 0 3 -62 3 -63 74 -3 c99 -4 100 -2 101 164 0 121 -2 138
-29 210 -60 164 -65 174 -84 174 -10 0 -15 5 -12 10 4 6 -10 10 -34 10 -24 0
-41 -5 -41 -11z m-15 -188 c13 -42 24 -61 39 -66 18 -6 19 -8 4 -12 -10 -2
-18 -9 -18 -14 0 -5 -20 -9 -44 -9 -55 0 -61 14 -40 88 27 93 34 95 59 13z"/>
<path d="M2144 932 c4 -7 -10 -12 -36 -14 l-43 -3 0 -70 0 -70 63 -3 62 -3 0
-184 c0 -101 3 -190 6 -199 5 -13 22 -16 79 -16 106 0 104 -5 107 230 3 176 5
195 20 198 13 2 16 -1 12 -12 -5 -13 1 -16 30 -16 68 0 103 81 54 128 -19 17
-40 22 -113 26 -49 2 -125 8 -169 11 -54 5 -76 4 -72 -3z"/>
<path d="M2910 930 c0 -6 -60 -10 -160 -10 -157 0 -161 0 -170 -22 l-9 -23 0
23 c-1 13 -5 20 -11 17 -5 -3 -10 -35 -10 -70 0 -72 3 -75 86 -75 l54 0 2
-197 3 -198 77 -3 c77 -3 77 -3 93 27 12 24 15 68 15 216 0 158 2 185 15 185
8 0 15 -7 15 -15 0 -22 63 -20 82 3 22 24 30 83 17 120 -10 29 -14 32 -55 32
-24 0 -44 -4 -44 -10z"/>
<path d="M3165 931 c-6 -5 -26 -11 -45 -13 l-35 -3 0 -270 0 -270 189 -3 c213
-3 215 -2 216 74 0 63 -19 74 -126 74 -78 0 -92 3 -107 20 -13 15 -15 25 -7
39 12 23 51 36 43 14 -5 -11 5 -14 53 -11 41 2 58 7 57 16 -2 6 4 12 12 12 8
0 15 6 16 13 0 6 2 25 3 40 2 39 -10 46 -95 55 l-74 7 -3 38 c-3 32 0 37 17
37 14 0 19 -5 14 -15 -5 -14 7 -15 83 -13 65 2 88 6 87 15 -2 7 2 12 9 10 14
-3 28 59 21 93 -5 29 -51 56 -67 40 -13 -13 -196 -13 -196 0 0 13 -53 13 -65
1z"/>
<path d="M3660 931 c0 -6 -19 -11 -42 -13 l-43 -3 0 -270 0 -270 69 -3 c96 -4
106 6 106 113 0 64 3 84 15 89 9 3 15 0 15 -9 0 -11 12 -15 45 -15 51 0 53 -3
57 -110 l3 -65 70 -3 c62 -3 71 -1 87 20 32 42 20 268 -14 268 -5 0 -20 8 -33
18 -21 17 -22 21 -9 34 19 19 29 85 20 132 -7 37 -42 77 -72 83 -62 12 -144
15 -144 4 0 -6 -18 -11 -45 -11 -25 0 -45 5 -45 10 0 6 -9 10 -20 10 -11 0
-20 -4 -20 -9z m120 -140 c0 -5 10 -11 23 -13 14 -2 23 -11 25 -25 2 -13 8
-23 14 -23 6 0 3 -9 -7 -20 -20 -22 -55 -26 -73 -8 -18 18 -16 98 3 98 8 0 15
-4 15 -9z"/>
</g>
</svg>
